<svg width="1120" height="564" viewBox="0 0 1120 564" fill="none" xmlns="http://www.w3.org/2000/svg">
<g clip-path="url(#clip0_809_7542)">
<g clip-path="url(#clip1_809_7542)">
<path opacity="0.6" d="M568.66 -963L-1596.4 287M577.321 -958L-1587.74 292M585.981 -953L-1579.08 297M594.641 -948L-1570.42 302M603.301 -943L-1561.76 307M611.962 -938L-1553.1 312M620.622 -933L-1544.44 317M629.282 -928L-1535.78 322M637.942 -923L-1527.12 327M646.603 -918L-1518.46 332M655.263 -913L-1509.8 337M663.923 -908L-1501.14 342M672.583 -903L-1492.48 347M681.244 -898L-1483.82 352M689.904 -893L-1475.16 357M698.564 -888L-1466.5 362M707.224 -883L-1457.84 367M715.885 -878L-1449.18 372M724.545 -873L-1440.52 377M733.205 -868L-1431.86 382M741.865 -863L-1423.2 387M750.526 -858L-1414.54 392M759.186 -853L-1405.88 397M767.846 -848L-1397.22 402M776.506 -843L-1388.56 407M785.167 -838L-1379.9 412M793.827 -833L-1371.24 417M802.487 -828L-1362.58 422M811.147 -823L-1353.92 427M819.808 -818L-1345.26 432M828.468 -813L-1336.6 437M837.128 -808L-1327.94 442M845.788 -803L-1319.28 447M854.449 -798L-1310.61 452M863.109 -793L-1301.95 457M871.769 -788L-1293.29 462M880.429 -783L-1284.63 467M889.09 -778L-1275.97 472M897.75 -773L-1267.31 477M906.41 -768L-1258.65 482M915.07 -763L-1249.99 487M923.731 -758L-1241.33 492M932.391 -753L-1232.67 497M941.051 -748L-1224.01 502M949.711 -743L-1215.35 507M958.372 -738L-1206.69 512M967.032 -733L-1198.03 517M975.692 -728L-1189.37 522M984.352 -723L-1180.71 527M993.013 -718L-1172.05 532M1001.67 -713L-1163.39 537M1010.33 -708L-1154.73 542M1018.99 -703L-1146.07 547M1027.65 -698L-1137.41 552M1036.31 -693L-1128.75 557M1044.97 -688L-1120.09 562M1053.63 -683L-1111.43 567M1062.29 -678L-1102.77 572M1070.95 -673L-1094.11 577M1079.62 -668L-1085.45 582M1088.28 -663L-1076.79 587M1096.94 -658L-1068.13 592M1105.6 -653L-1059.47 597M1114.26 -648L-1050.81 602M1122.92 -643L-1042.15 607M1131.58 -638L-1033.49 612M1140.24 -633L-1024.83 617M1148.9 -628L-1016.17 622M1157.56 -623L-1007.51 627M1166.22 -618L-998.846 632M1174.88 -613L-990.185 637M1183.54 -608L-981.525 642M1192.2 -603L-972.865 647M1200.86 -598L-964.205 652M1209.52 -593L-955.544 657M1218.18 -588L-946.884 662M1226.84 -583L-938.224 667M1235.5 -578L-929.564 672M1244.16 -573L-920.903 677M1252.82 -568L-912.243 682M1261.48 -563L-903.583 687M1270.14 -558L-894.923 692M1278.8 -553L-886.262 697M1287.46 -548L-877.602 702M1296.12 -543L-868.942 707M1304.78 -538L-860.282 712M1313.44 -533L-851.621 717M1322.1 -528L-842.961 722M1330.76 -523L-834.301 727M1339.42 -518L-825.641 732M1348.08 -513L-816.98 737M1356.74 -508L-808.32 742M1365.4 -503L-799.66 747M1374.06 -498L-791 752M1382.72 -493L-782.339 757M1391.38 -488L-773.679 762M1400.04 -483L-765.019 767M1408.7 -478L-756.359 772M1417.37 -473L-747.698 777M1426.03 -468L-739.038 782M1434.69 -463L-730.378 787M1443.35 -458L-721.718 792M1452.01 -453L-713.057 797M1460.67 -448L-704.397 802M1469.33 -443L-695.737 807M1477.99 -438L-687.077 812M1486.65 -433L-678.416 817M1495.31 -428L-669.756 822M1503.97 -423L-661.096 827M1512.63 -418L-652.436 832M1521.29 -413L-643.775 837M1529.95 -408L-635.115 842M1538.61 -403L-626.455 847M1547.27 -398L-617.795 852M1555.93 -393L-609.134 857M1564.59 -388L-600.474 862M1573.25 -383L-591.814 867M1581.91 -378L-583.154 872M1590.57 -373L-574.493 877M1599.23 -368L-565.833 882M1607.89 -363L-557.173 887M1616.55 -358L-548.512 892M1625.21 -353L-539.852 897M1633.87 -348L-531.192 902M1642.53 -343L-522.532 907M1651.19 -338L-513.871 912M1659.85 -333L-505.211 917M1668.51 -328L-496.551 922M1677.17 -323L-487.891 927M1685.83 -318L-479.23 932M1694.49 -313L-470.57 937M1703.15 -308L-461.91 942M1711.81 -303L-453.25 947M1720.47 -298L-444.589 952M1729.13 -293L-435.929 957M1737.79 -288L-427.269 962M1746.45 -283L-418.609 967M1755.12 -278L-409.948 972M1763.78 -273L-401.288 977M1772.44 -268L-392.628 982M1781.1 -263L-383.968 987M1789.76 -258L-375.307 992M1798.42 -253L-366.647 997M1807.08 -248L-357.987 1002M1815.74 -243L-349.327 1007M1824.4 -238L-340.666 1012M1833.06 -233L-332.006 1017M1841.72 -228L-323.346 1022M1850.38 -223L-314.686 1027M1859.04 -218L-306.025 1032M1867.7 -213L-297.365 1037M1876.36 -208L-288.705 1042M1885.02 -203L-280.045 1047M1893.68 -198L-271.384 1052M1902.34 -193L-262.724 1057M1911 -188L-254.064 1062M1919.66 -183L-245.404 1067M1928.32 -178L-236.743 1072M1936.98 -173L-228.083 1077M1945.64 -168L-219.423 1082M1954.3 -163L-210.763 1087M1962.96 -158L-202.102 1092M1971.62 -153L-193.442 1097M1980.28 -148L-184.782 1102M1988.94 -143L-176.122 1107M1997.6 -138L-167.461 1112M2006.26 -133L-158.801 1117M2014.92 -128L-150.141 1122M2023.58 -123L-141.481 1127M2032.24 -118L-132.82 1132M2040.9 -113L-124.16 1137M2049.56 -108L-115.5 1142M2058.22 -103L-106.84 1147M2066.88 -98L-98.1793 1152M2075.54 -93L-89.519 1157M2084.2 -88L-80.8588 1162M2092.86 -83L-72.1985 1167M2101.53 -78L-63.5383 1172M2110.19 -73L-54.878 1177M2118.85 -68L-46.2178 1182M2127.51 -63L-37.5575 1187M2136.17 -58L-28.8973 1192M2144.83 -53L-20.237 1197M2153.49 -48L-11.5768 1202M2162.15 -43L-2.9165 1207M2170.81 -38L5.74375 1212M2179.47 -33L14.404 1217M2188.13 -28L23.0643 1222M2196.79 -23L31.7245 1227M2205.45 -18L40.3848 1232M2214.11 -13L49.045 1237M2222.77 -8L57.7053 1242M2231.43 -3L66.3655 1247M2240.09 2L75.0258 1252M2248.75 7L83.686 1257M2257.41 12L92.3463 1262M2266.07 17L101.007 1267M2274.73 22L109.667 1272M2283.39 27L118.327 1277M2292.05 32L126.987 1282M2300.71 37L135.648 1287M2309.37 42L144.308 1292M2318.03 47L152.968 1297M2326.69 52L161.628 1302M2335.35 57L170.289 1307M2344.01 62L178.949 1312M2352.67 67L187.609 1317M2361.33 72L196.269 1322M2369.99 77L204.93 1327M2378.65 82L213.59 1332M2387.31 87L222.25 1337M2395.97 92L230.91 1342M2404.63 97L239.571 1347M2413.29 102L248.231 1352M2421.95 107L256.891 1357M2430.61 112L265.551 1362M2439.28 117L274.212 1367M2447.94 122L282.872 1372M2456.6 127L291.532 1377M2465.26 132L300.192 1382M2473.92 137L308.853 1387M2482.58 142L317.513 1392M2491.24 147L326.173 1397M2499.9 152L334.833 1402M2508.56 157L343.494 1407M2517.22 162L352.154 1412M2525.88 167L360.814 1417M2534.54 172L369.474 1422M2543.2 177L378.135 1427M2551.86 182L386.795 1432M2560.52 187L395.455 1437M2569.18 192L404.115 1442M2577.84 197L412.776 1447M2586.5 202L421.436 1452M2595.16 207L430.096 1457M2603.82 212L438.756 1462M2612.48 217L447.417 1467M2621.14 222L456.077 1472M2629.8 227L464.737 1477M2638.46 232L473.397 1482M2647.12 237L482.058 1487M2655.78 242L490.718 1492M2664.44 247L499.378 1497M2673.1 252L508.038 1502M2681.76 257L516.699 1507M2690.42 262L525.359 1512M2699.08 267L534.019 1517M2707.74 272L542.679 1522M2716.4 277L551.34 1527M551.34 -963L2716.4 287M542.679 -958L2707.74 292M534.019 -953L2699.08 297M525.359 -948L2690.42 302M516.699 -943L2681.76 307M508.038 -938L2673.1 312M499.378 -933L2664.44 317M490.718 -928L2655.78 322M482.058 -923L2647.12 327M473.397 -918L2638.46 332M464.737 -913L2629.8 337M456.077 -908L2621.14 342M447.417 -903L2612.48 347M438.756 -898L2603.82 352M430.096 -893L2595.16 357M421.436 -888L2586.5 362M412.776 -883L2577.84 367M404.115 -878L2569.18 372M395.455 -873L2560.52 377M386.795 -868L2551.86 382M378.135 -863L2543.2 387M369.474 -858L2534.54 392M360.814 -853L2525.88 397M352.154 -848L2517.22 402M343.494 -843L2508.56 407M334.833 -838L2499.9 412M326.173 -833L2491.24 417M317.513 -828L2482.58 422M308.853 -823L2473.92 427M300.192 -818L2465.26 432M291.532 -813L2456.6 437M282.872 -808L2447.94 442M274.212 -803L2439.28 447M265.551 -798L2430.61 452M256.891 -793L2421.95 457M248.231 -788L2413.29 462M239.571 -783L2404.63 467M230.91 -778L2395.97 472M222.25 -773L2387.31 477M213.59 -768L2378.65 482M204.93 -763L2369.99 487M196.269 -758L2361.33 492M187.609 -753L2352.67 497M178.949 -748L2344.01 502M170.289 -743L2335.35 507M161.628 -738L2326.69 512M152.968 -733L2318.03 517M144.308 -728L2309.37 522M135.648 -723L2300.71 527M126.987 -718L2292.05 532M118.327 -713L2283.39 537M109.667 -708L2274.73 542M101.007 -703L2266.07 547M92.3463 -698L2257.41 552M83.686 -693L2248.75 557M75.0258 -688L2240.09 562M66.3655 -683L2231.43 567M57.7053 -678L2222.77 572M49.045 -673L2214.11 577M40.3848 -668L2205.45 582M31.7245 -663L2196.79 587M23.0643 -658L2188.13 592M14.404 -653L2179.47 597M5.74375 -648L2170.81 602M-2.9165 -643L2162.15 607M-11.5768 -638L2153.49 612M-20.237 -633L2144.83 617M-28.8973 -628L2136.17 622M-37.5575 -623L2127.51 627M-46.2178 -618L2118.85 632M-54.878 -613L2110.19 637M-63.5383 -608L2101.53 642M-72.1985 -603L2092.86 647M-80.8588 -598L2084.2 652M-89.519 -593L2075.54 657M-98.1793 -588L2066.88 662M-106.84 -583L2058.22 667M-115.5 -578L2049.56 672M-124.16 -573L2040.9 677M-132.82 -568L2032.24 682M-141.481 -563L2023.58 687M-150.141 -558L2014.92 692M-158.801 -553L2006.26 697M-167.461 -548L1997.6 702M-176.122 -543L1988.94 707M-184.782 -538L1980.28 712M-193.442 -533L1971.62 717M-202.102 -528L1962.96 722M-210.763 -523L1954.3 727M-219.423 -518L1945.64 732M-228.083 -513L1936.98 737M-236.743 -508L1928.32 742M-245.404 -503L1919.66 747M-254.064 -498L1911 752M-262.724 -493L1902.34 757M-271.384 -488L1893.68 762M-280.045 -483L1885.02 767M-288.705 -478L1876.36 772M-297.365 -473L1867.7 777M-306.025 -468L1859.04 782M-314.686 -463L1850.38 787M-323.346 -458L1841.72 792M-332.006 -453L1833.06 797M-340.666 -448L1824.4 802M-349.327 -443L1815.74 807M-357.987 -438L1807.08 812M-366.647 -433L1798.42 817M-375.307 -428L1789.76 822M-383.968 -423L1781.1 827M-392.628 -418L1772.44 832M-401.288 -413L1763.78 837M-409.948 -408L1755.12 842M-418.609 -403L1746.45 847M-427.269 -398L1737.79 852M-435.929 -393L1729.13 857M-444.589 -388L1720.47 862M-453.25 -383L1711.81 867M-461.91 -378L1703.15 872M-470.57 -373L1694.49 877M-479.23 -368L1685.83 882M-487.891 -363L1677.17 887M-496.551 -358L1668.51 892M-505.211 -353L1659.85 897M-513.871 -348L1651.19 902M-522.532 -343L1642.53 907M-531.192 -338L1633.87 912M-539.852 -333L1625.21 917M-548.512 -328L1616.55 922M-557.173 -323L1607.89 927M-565.833 -318L1599.23 932M-574.493 -313L1590.57 937M-583.154 -308L1581.91 942M-591.814 -303L1573.25 947M-600.474 -298L1564.59 952M-609.134 -293L1555.93 957M-617.795 -288L1547.27 962M-626.455 -283L1538.61 967M-635.115 -278L1529.95 972M-643.775 -273L1521.29 977M-652.436 -268L1512.63 982M-661.096 -263L1503.97 987M-669.756 -258L1495.31 992M-678.416 -253L1486.65 997M-687.077 -248L1477.99 1002M-695.737 -243L1469.33 1007M-704.397 -238L1460.67 1012M-713.057 -233L1452.01 1017M-721.718 -228L1443.35 1022M-730.378 -223L1434.69 1027M-739.038 -218L1426.03 1032M-747.698 -213L1417.37 1037M-756.359 -208L1408.7 1042M-765.019 -203L1400.04 1047M-773.679 -198L1391.38 1052M-782.339 -193L1382.72 1057M-791 -188L1374.06 1062M-799.66 -183L1365.4 1067M-808.32 -178L1356.74 1072M-816.98 -173L1348.08 1077M-825.641 -168L1339.42 1082M-834.301 -163L1330.76 1087M-842.961 -158L1322.1 1092M-851.621 -153L1313.44 1097M-860.282 -148L1304.78 1102M-868.942 -143L1296.12 1107M-877.602 -138L1287.46 1112M-886.262 -133L1278.8 1117M-894.923 -128L1270.14 1122M-903.583 -123L1261.48 1127M-912.243 -118L1252.82 1132M-920.903 -113L1244.16 1137M-929.564 -108L1235.5 1142M-938.224 -103L1226.84 1147M-946.884 -98L1218.18 1152M-955.544 -93L1209.52 1157M-964.205 -88L1200.86 1162M-972.865 -83L1192.2 1167M-981.525 -78L1183.54 1172M-990.185 -73L1174.88 1177M-998.846 -68L1166.22 1182M-1007.51 -63L1157.56 1187M-1016.17 -58L1148.9 1192M-1024.83 -53L1140.24 1197M-1033.49 -48L1131.58 1202M-1042.15 -43L1122.92 1207M-1050.81 -38L1114.26 1212M-1059.47 -33L1105.6 1217M-1068.13 -28L1096.94 1222M-1076.79 -23L1088.28 1227M-1085.45 -18L1079.62 1232M-1094.11 -13L1070.95 1237M-1102.77 -8L1062.29 1242M-1111.43 -3L1053.63 1247M-1120.09 2L1044.97 1252M-1128.75 7L1036.31 1257M-1137.41 12L1027.65 1262M-1146.07 17L1018.99 1267M-1154.73 22L1010.33 1272M-1163.39 27L1001.67 1277M-1172.05 32L993.013 1282M-1180.71 37L984.352 1287M-1189.37 42L975.692 1292M-1198.03 47L967.032 1297M-1206.69 52L958.372 1302M-1215.35 57L949.711 1307M-1224.01 62L941.051 1312M-1232.67 67L932.391 1317M-1241.33 72L923.731 1322M-1249.99 77L915.07 1327M-1258.65 82L906.41 1332M-1267.31 87L897.75 1337M-1275.97 92L889.09 1342M-1284.63 97L880.429 1347M-1293.29 102L871.769 1352M-1301.95 107L863.109 1357M-1310.61 112L854.449 1362M-1319.28 117L845.788 1367M-1327.94 122L837.128 1372M-1336.6 127L828.468 1377M-1345.26 132L819.808 1382M-1353.92 137L811.147 1387M-1362.58 142L802.487 1392M-1371.24 147L793.827 1397M-1379.9 152L785.167 1402M-1388.56 157L776.506 1407M-1397.22 162L767.846 1412M-1405.88 167L759.186 1417M-1414.54 172L750.526 1422M-1423.2 177L741.865 1427M-1431.86 182L733.205 1432M-1440.52 187L724.545 1437M-1449.18 192L715.885 1442M-1457.84 197L707.224 1447M-1466.5 202L698.564 1452M-1475.16 207L689.904 1457M-1483.82 212L681.244 1462M-1492.48 217L672.583 1467M-1501.14 222L663.923 1472M-1509.8 227L655.263 1477M-1518.46 232L646.603 1482M-1527.12 237L637.942 1487M-1535.78 242L629.282 1492M-1544.44 247L620.622 1497M-1553.1 252L611.962 1502M-1561.76 257L603.301 1507M-1570.42 262L594.641 1512M-1579.08 267L585.981 1517M-1587.74 272L577.321 1522M-1596.4 277L568.66 1527M560 -968L-1605.06 282L560 1532L2725.06 282L560 -968Z" stroke="#3F66FE" stroke-opacity="0.3" stroke-width="0.5"/>
</g>
</g>
<defs>
<clipPath id="clip0_809_7542">
<rect width="1120" height="564" fill="white"/>
</clipPath>
<clipPath id="clip1_809_7542">
<rect width="1120" height="564" rx="12" fill="white"/>
</clipPath>
</defs>
</svg>
