<svg width="20" height="20" viewBox="0 0 20 20" fill="none" xmlns="http://www.w3.org/2000/svg">
<path d="M9.99984 17.7084C14.257 17.7084 17.7082 14.2572 17.7082 10.0001C17.7082 5.74289 14.257 2.29175 9.99984 2.29175M9.99984 17.7084C5.74265 17.7084 2.2915 14.2572 2.2915 10.0001C2.2915 5.74289 5.74265 2.29175 9.99984 2.29175M9.99984 17.7084C8.04383 17.7084 6.45817 14.2572 6.45817 10.0001C6.45817 5.74289 8.04383 2.29175 9.99984 2.29175M9.99984 17.7084C11.9558 17.7084 13.5415 14.2572 13.5415 10.0001C13.5415 5.74289 11.9558 2.29175 9.99984 2.29175" stroke="#343434" stroke-width="1.2" stroke-linecap="square"/>
<path d="M17.5 10H2.5" stroke="#343434" stroke-width="1.2" stroke-linecap="square"/>
</svg>
