<svg width="20" height="20" viewBox="0 0 20 20" fill="none" xmlns="http://www.w3.org/2000/svg">
<path d="M7.73976 7.11206L8.85866 6.55261C8.94258 6.51065 9.01066 6.44258 9.05258 6.35865L9.61208 5.23976C9.77191 4.92008 10.2281 4.92008 10.3879 5.23976L10.9474 6.35864C10.9893 6.44258 11.0574 6.51065 11.1413 6.55261L12.2602 7.11206C12.5799 7.2719 12.5799 7.7281 12.2602 7.88794L11.1413 8.44741C11.0574 8.48933 10.9893 8.55741 10.9474 8.64133L10.3879 9.76025C10.2281 10.0799 9.77191 10.0799 9.61208 9.76025L9.05258 8.64133C9.01066 8.55741 8.94258 8.48933 8.85866 8.44741L7.73976 7.88794C7.42008 7.7281 7.42008 7.2719 7.73976 7.11206Z" fill="#343434"/>
<path d="M4.3172 15.2084C5.72634 13.6717 7.75058 12.7084 9.99984 12.7084C12.2491 12.7084 14.2733 13.6717 15.6825 15.2084M4.3172 15.2084C5.72634 16.7451 7.75058 17.7084 9.99984 17.7084C12.2491 17.7084 14.2733 16.7451 15.6825 15.2084M4.3172 15.2084C3.05925 13.8367 2.2915 12.008 2.2915 10.0001C2.2915 5.74289 5.74265 2.29175 9.99984 2.29175C14.257 2.29175 17.7082 5.74289 17.7082 10.0001C17.7082 12.008 16.9404 13.8367 15.6825 15.2084" stroke="#343434" stroke-width="1.2"/>
</svg>
