<svg width="24" height="24" viewBox="0 0 24 24" fill="none" xmlns="http://www.w3.org/2000/svg">
<g clip-path="url(#clip0_4203_20671)">
<path d="M8.5778 20.3023C7.24428 19.7504 6.05225 18.8809 5.11304 17.7552C3.67047 16.0262 2.92939 13.8187 3.03639 11.5695C3.1434 9.32028 4.0907 7.19314 5.69089 5.6089C7.29108 4.02466 9.4276 3.09871 11.6778 3.01423C13.928 2.92976 16.1279 3.69291 17.8424 5.15272C19.5568 6.61253 20.6609 8.66265 20.9363 10.8975C21.2116 13.1324 20.6381 15.3892 19.3293 17.2215C18.4478 18.4555 17.2761 19.4363 15.9318 20.0872" stroke="white" stroke-width="2" stroke-linecap="round" stroke-linejoin="round"/>
<path d="M14.7563 15.5628C15.2863 15.1571 15.7232 14.6356 16.0305 14.0325C16.5081 13.0951 16.6422 12.02 16.4094 10.9939C16.1766 9.9679 15.5917 9.05587 14.7563 8.41635C13.9209 7.77683 12.8878 7.45025 11.8365 7.49337C10.7853 7.53649 9.78244 7.94658 9.00219 8.65237C8.22195 9.35817 7.71367 10.315 7.5657 11.3567C7.41772 12.3983 7.63941 13.4589 8.19222 14.3541C8.48227 14.8237 8.85385 15.2323 9.28565 15.5628" stroke="white" stroke-width="2" stroke-linecap="round" stroke-linejoin="round"/>
</g>
<defs>
<clipPath id="clip0_4203_20671">
<rect width="24" height="24" fill="white"/>
</clipPath>
</defs>
</svg>
