<svg width="16" height="16" viewBox="0 0 16 16" fill="none" xmlns="http://www.w3.org/2000/svg">
<path d="M7.64654 1.14643L3.64652 5.14645C3.45126 5.34171 3.45126 5.65829 3.64652 5.85355L4.64664 6.85367C4.8419 7.04893 5.15848 7.04893 5.35374 6.85367L9.35376 2.85365C9.54902 2.65839 9.54902 2.34181 9.35376 2.14655L8.35364 1.14643C8.15838 0.95117 7.8418 0.95117 7.64654 1.14643Z" stroke="#343434" stroke-width="1.5" stroke-linecap="round" stroke-linejoin="round"/>
<path d="M13.1465 6.64643L9.14652 10.6464C8.95126 10.8417 8.95126 11.1583 9.14652 11.3536L10.1466 12.3537C10.3419 12.5489 10.6585 12.5489 10.8537 12.3537L14.8538 8.35365C15.049 8.15839 15.049 7.84181 14.8538 7.64655L13.8536 6.64643C13.6584 6.45117 13.3418 6.45117 13.1465 6.64643Z" stroke="#343434" stroke-width="1.5" stroke-linecap="round" stroke-linejoin="round"/>
<path d="M9.10352 3.10156L12.896 6.89406" stroke="#343434" stroke-width="1.5" stroke-linecap="round" stroke-linejoin="round"/>
<path d="M5.60352 6.60156L9.39602 10.3941" stroke="#343434" stroke-width="1.5" stroke-linecap="round" stroke-linejoin="round"/>
<path d="M8.24935 9.25L3.81185 13.6875C3.6127 13.886 3.34301 13.9974 3.06185 13.9974C2.7807 13.9974 2.511 13.886 2.31185 13.6875C2.11339 13.4883 2.00195 13.2187 2.00195 12.9375C2.00195 12.6563 2.11339 12.3867 2.31185 12.1875L6.74935 7.75" stroke="#343434" stroke-width="1.5" stroke-linecap="round" stroke-linejoin="round"/>
</svg>
