<svg width="20" height="20" viewBox="0 0 20 20" fill="none" xmlns="http://www.w3.org/2000/svg">
<g clip-path="url(#clip0_4267_20445)">
<path d="M6.66602 13.3307V9.9974C6.66602 9.11334 7.0172 8.26549 7.64233 7.64037C8.26745 7.01525 9.11529 6.66406 9.99935 6.66406C10.8834 6.66406 11.7313 7.01525 12.3564 7.64037C12.9815 8.26549 13.3327 9.11334 13.3327 9.9974V13.3307" stroke="#343434" stroke-width="1.2" stroke-linecap="round" stroke-linejoin="round"/>
<path d="M2.5 10H3.33333M10 2.5V3.33333M16.6667 10H17.5M4.66667 4.66667L5.25 5.25M15.3333 4.66667L14.75 5.25" stroke="#343434" stroke-width="1.2" stroke-linecap="round" stroke-linejoin="round"/>
<path d="M14.1667 13.3359H5.83333C5.3731 13.3359 5 13.709 5 14.1693V15.8359C5 16.2962 5.3731 16.6693 5.83333 16.6693H14.1667C14.6269 16.6693 15 16.2962 15 15.8359V14.1693C15 13.709 14.6269 13.3359 14.1667 13.3359Z" stroke="#343434" stroke-width="1.2" stroke-linecap="round" stroke-linejoin="round"/>
</g>
<defs>
<clipPath id="clip0_4267_20445">
<rect width="20" height="20" fill="white"/>
</clipPath>
</defs>
</svg>
